<svg id="Layer_4" data-name="Layer 4" xmlns="http://www.w3.org/2000/svg" xmlns:xlink="http://www.w3.org/1999/xlink" viewBox="0 0 1323.65 1170"><defs><style>.cls-1,.cls-3{fill:none;}.cls-1,.cls-2,.cls-3,.cls-4{stroke-miterlimit:10;stroke-width:40px;}.cls-1{stroke:url(#linear-gradient);}.cls-2{fill:url(#linear-gradient-2);stroke:url(#linear-gradient-3);}.cls-3{stroke:url(#linear-gradient-4);}.cls-4{fill:url(#linear-gradient-5);stroke:url(#linear-gradient-6);}</style><linearGradient id="linear-gradient" x1="876.42" y1="1517.32" x2="1636" y2="1517.32" gradientUnits="userSpaceOnUse"><stop offset="0" stop-color="#663761"/><stop offset="1" stop-color="#333761"/></linearGradient><linearGradient id="linear-gradient-2" x1="615.87" y1="1018.08" x2="1896.17" y2="1018.08" xlink:href="#linear-gradient"/><linearGradient id="linear-gradient-3" x1="594.2" y1="1011.24" x2="1917.86" y2="1011.24" xlink:href="#linear-gradient"/><linearGradient id="linear-gradient-4" x1="775" y1="894" x2="1737" y2="894" xlink:href="#linear-gradient"/><linearGradient id="linear-gradient-5" x1="803" y1="546" x2="803" y2="546" xlink:href="#linear-gradient"/><linearGradient id="linear-gradient-6" x1="803" y1="546" x2="803" y2="546" gradientUnits="userSpaceOnUse"><stop offset="0" stop-color="#60c"/><stop offset="1" stop-color="#906"/></linearGradient></defs><title>Logo</title><path class="cls-1" d="M1616,1695.6c-.33,25.86-22,46.4-47.83,46.4H944.25c-25.86,0-47.5-20.54-47.83-46.4a47.06,47.06,0,0,1,3.62-18.73l40.32-138.25c.87-3,2.22-5.79,3.15-8.75a22.29,22.29,0,0,1,1-2.76c.36-.86.86-2.11,1.86-5.11,7-25,15-49.6,15-77,0-.9,0-1.8,0-2.7s0-1.62-.06-2.42-.05-1.56-.08-2.33q-.16-3.71-.48-7.37c0-.59-.1-1.18-.16-1.76l-.12-1.17c-.06-.65-.13-1.3-.21-1.94-.17-1.48-.36-3-.57-4.42-.16-1.13-.33-2.26-.52-3.39-.09-.6-.19-1.19-.3-1.79-.41-2.38-.87-4.75-1.39-7.09-.25-1.17-.51-2.34-.8-3.5s-.55-2.25-.84-3.37a1.17,1.17,0,0,1,0-.2q-.86-3.21-1.82-6.38c-.13-.42-.26-.84-.4-1.25-.61-2-1.27-3.94-2-5.88l0-.08-8.19-27.34-13.75-44.51a649.76,649.76,0,0,0,653.17-.3L1569,1360.62l-8.19,27.34,0,.08c-.69,1.94-1.35,3.9-2,5.88-.14.41-.27.83-.4,1.25q-1,3.16-1.82,6.38a1.17,1.17,0,0,1,0,.2c-.29,1.12-.57,2.24-.84,3.37s-.55,2.33-.8,3.5c-.52,2.34-1,4.71-1.39,7.09-.11.6-.21,1.19-.3,1.79-.19,1.13-.36,2.26-.52,3.39-.21,1.46-.4,2.94-.57,4.42-.08.64-.15,1.29-.21,1.94l-.12,1.17c-.06.58-.11,1.17-.16,1.76q-.32,3.66-.48,7.37c0,.77-.06,1.55-.08,2.33s0,1.61-.06,2.42,0,1.8,0,2.7c0,27.4,8,52,15,77,1,3,1.5,4.25,1.86,5.11a22.29,22.29,0,0,1,1.05,2.76c.93,3,2.28,5.78,3.15,8.75l40.32,138.25A47.06,47.06,0,0,1,1616,1695.6Z" transform="translate(-594.2 -592)"/><path class="cls-2" d="M1896.17,862.28q-3.8,22.9-9.2,45.25l-122.62,161c-4.31,6.45-10.87,11.42-19.12,11.51-.39,0-.8,0-1.21,0a22.09,22.09,0,0,1-14.36-6.67l-33.45-26.52,0,0-4.07-3.23h0a13.41,13.41,0,0,0-6.19-1.5h-.42a13.49,13.49,0,0,0-13.5,13.5c0,.17,0,.35,0,.52a0,0,0,0,0,0,0,8.7,8.7,0,0,0,.73,3.87l.25,1.08a199.64,199.64,0,0,1,3,36c0,72.37-44.07,129.07-44.07,129.07-1.45,1.88-12.22,15.47-31,31.06l-18.12,58.68a649.76,649.76,0,0,1-653.17.3l-18.21-59c-18.75-15.59-29.52-29.18-31-31.06,0,0-44.07-56.7-44.07-129.07a199.64,199.64,0,0,1,3-36l.25-1.08a8.7,8.7,0,0,0,.73-3.87,0,0,0,0,0,0,0c0-.17,0-.35,0-.52a13.49,13.49,0,0,0-13.5-13.5h-.42a13.41,13.41,0,0,0-6.19,1.5h0l-4.07,3.23h0l-33.45,26.52A22.09,22.09,0,0,1,768.4,1080c-.41,0-.82,0-1.21,0-8.25-.09-14.81-5.06-19.12-11.51L624.84,906.73q-5.24-21.81-9-44.17a20,20,0,0,1,2.15-1.48l60.38-45.42,0-.66c3.46-81.78,53.55-151,124.34-182.63A462.69,462.69,0,0,0,795,717c0,254.6,206.4,461,461,461s461-206.4,461-461a462.16,462.16,0,0,0-7.8-84.83c71,31.52,121.33,100.88,124.8,182.83l0,.66,60.38,45.42A19,19,0,0,1,1896.17,862.28Z" transform="translate(-594.2 -592)"/><path class="cls-3" d="M1717,715c0,254.6-206.4,461-461,461S795,969.6,795,715a462.69,462.69,0,0,1,7.76-84.63,211.59,211.59,0,0,1,73.46-18c3.49-.21,7-.34,10.54-.38.75,0,1.49,0,2.24,0,1.36,0,2.73,0,4.09,0l2,0,2,.07,97.9,1.69a40.2,40.2,0,0,1,22.7,7.29c3.41,2.43,6.37,5.37,7.33,8.62.27,1.68.56,3.34.87,5a168.38,168.38,0,0,0,12.63,39.44,170.23,170.23,0,0,0,38.59,53.26c24.42,22.73,55.53,61.64,90,76h0A66.72,66.72,0,0,0,1193,809l1.51,0c3.5.09,7,.45,10.44.45h.74c.48,0,1,0,1.43,0a465.75,465.75,0,0,0,97.91,0h0c.56,0,1.11.05,1.67.05h.74c3.46,0,6.94-.36,10.44-.45l1.51,0a67.14,67.14,0,0,0,26.13-5.7s0,0,0,0c34.37-14.49,65.34-53.2,89.67-75.84a170.23,170.23,0,0,0,38.59-53.26,168.38,168.38,0,0,0,12.63-39.44c.31-1.66.6-3.32.87-5A22,22,0,0,1,1508.41,614l106.85-1.85,2-.07c.68,0,1.35,0,2,0,1.22,0,2.45,0,3.67,0l2.66,0,2.55,0c2.54.07,5.06.17,7.58.32a211.54,211.54,0,0,1,73.41,17.79A462.16,462.16,0,0,1,1717,715Z" transform="translate(-594.2 -592)"/><path class="cls-4" d="M803,546" transform="translate(-594.2 -592)"/></svg>