<svg width="346" height="279" viewBox="0 0 346 279" fill="none" xmlns="http://www.w3.org/2000/svg">
<path d="M317.95 245.972C318.032 246.111 318.024 246.29 317.971 246.442L316.298 251.328C316.238 251.515 316.045 251.661 315.863 251.71C315.812 251.723 315.664 251.752 315.604 251.751L313.227 251.802L315.855 261.61C315.936 261.909 315.782 262.182 315.478 262.264L304.637 265.169C304.333 265.25 304.063 265.09 303.983 264.791L301.355 254.983L299.5 256.072C299.287 256.207 299.061 256.168 298.878 256.001L295.01 252.611C294.886 252.501 294.82 252.358 294.821 252.197C294.816 252.032 294.897 251.9 295.017 251.791L299.935 247.618L302.516 246.926C302.82 246.845 303.089 247 303.17 247.304C303.455 248.368 305.149 248.722 306.212 248.437C307.276 248.152 308.619 246.99 308.332 245.921C308.252 245.622 308.406 245.348 308.71 245.267L311.291 244.575L317.566 245.693C317.73 245.727 317.868 245.828 317.95 245.972V245.972Z" fill="#1A1A1A" fill-opacity="0.2"/>
<path d="M341.95 219.972C342.032 220.111 342.024 220.29 341.971 220.442L340.298 225.328C340.238 225.515 340.045 225.661 339.863 225.71C339.812 225.723 339.664 225.752 339.604 225.751L337.227 225.802L339.855 235.61C339.936 235.909 339.782 236.182 339.478 236.264L328.637 239.169C328.333 239.25 328.063 239.09 327.983 238.791L325.355 228.983L323.5 230.072C323.287 230.207 323.061 230.168 322.878 230.001L319.01 226.611C318.886 226.501 318.82 226.358 318.821 226.197C318.816 226.032 318.897 225.9 319.017 225.791L323.935 221.618L326.516 220.926C326.82 220.845 327.089 221 327.17 221.304C327.455 222.368 329.149 222.722 330.212 222.437C331.276 222.152 332.619 220.99 332.332 219.921C332.252 219.622 332.406 219.348 332.71 219.267L335.291 218.575L341.566 219.693C341.73 219.727 341.868 219.828 341.95 219.972V219.972Z" fill="#1A1A1A" fill-opacity="0.2"/>
<path d="M24.9503 257.972C25.0317 258.111 25.0238 258.29 24.9712 258.442L23.2982 263.328C23.2378 263.515 23.0445 263.661 22.8633 263.71C22.8117 263.723 22.6644 263.752 22.604 263.751L20.2274 263.802L22.8554 273.61C22.9356 273.909 22.7821 274.182 22.4775 274.264L11.6375 277.169C11.3329 277.25 11.0632 277.09 10.9829 276.791L8.35499 266.983L6.50015 268.072C6.28723 268.207 6.06102 268.168 5.87803 268.001L2.00988 264.611C1.88617 264.501 1.82025 264.358 1.82143 264.197C1.81607 264.032 1.89681 263.9 2.01682 263.791L6.93479 259.618L9.51576 258.926C9.82031 258.845 10.0887 259 10.1703 259.304C10.4552 260.368 12.1489 260.722 13.2123 260.437C14.2756 260.152 15.6185 258.99 15.3322 257.921C15.252 257.622 15.4055 257.348 15.7101 257.267L18.291 256.575L24.5658 257.693C24.7297 257.727 24.8675 257.828 24.9503 257.972V257.972Z" fill="#1A1A1A" fill-opacity="0.2"/>
<path d="M163.95 247.634C164.032 247.772 164.024 247.952 163.971 248.104L162.298 252.989C162.238 253.177 162.045 253.323 161.863 253.372C161.812 253.385 161.664 253.414 161.604 253.413L159.227 253.464L161.855 263.271C161.936 263.571 161.782 263.844 161.478 263.926L150.637 266.83C150.333 266.912 150.063 266.752 149.983 266.453L147.355 256.645L145.5 257.734C145.287 257.868 145.061 257.829 144.878 257.663L141.01 254.273C140.886 254.162 140.82 254.02 140.821 253.859C140.816 253.694 140.897 253.562 141.017 253.452L145.935 249.28L148.516 248.588C148.82 248.507 149.089 248.662 149.17 248.966C149.455 250.03 151.149 250.383 152.212 250.099C153.276 249.814 154.619 248.652 154.332 247.583C154.252 247.284 154.406 247.01 154.71 246.929L157.291 246.237L163.566 247.355C163.73 247.389 163.868 247.49 163.95 247.634V247.634Z" fill="#1A1A1A" fill-opacity="0.2"/>
<path d="M116.95 179.972C117.032 180.111 117.024 180.29 116.971 180.442L115.298 185.328C115.238 185.515 115.045 185.661 114.863 185.71C114.812 185.723 114.664 185.752 114.604 185.751L112.227 185.802L114.855 195.61C114.936 195.909 114.782 196.182 114.478 196.264L103.637 199.169C103.333 199.25 103.063 199.09 102.983 198.791L100.355 188.983L98.5002 190.072C98.2872 190.207 98.061 190.168 97.878 190.001L94.0099 186.611C93.8862 186.501 93.8202 186.358 93.8214 186.197C93.8161 186.032 93.8968 185.9 94.0168 185.791L98.9348 181.618L101.516 180.926C101.82 180.845 102.089 181 102.17 181.304C102.455 182.368 104.149 182.722 105.212 182.437C106.276 182.152 107.619 180.99 107.332 179.921C107.252 179.622 107.406 179.348 107.71 179.267L110.291 178.575L116.566 179.693C116.73 179.727 116.868 179.828 116.95 179.972V179.972Z" fill="#1A1A1A" fill-opacity="0.2"/>
<path d="M121.95 125.972C122.032 126.111 122.024 126.29 121.971 126.442L120.298 131.328C120.238 131.515 120.045 131.661 119.863 131.71C119.812 131.723 119.664 131.752 119.604 131.751L117.227 131.802L119.855 141.61C119.936 141.909 119.782 142.182 119.478 142.264L108.637 145.169C108.333 145.25 108.063 145.09 107.983 144.791L105.355 134.983L103.5 136.072C103.287 136.207 103.061 136.168 102.878 136.001L99.0099 132.611C98.8862 132.501 98.8202 132.358 98.8214 132.197C98.8161 132.032 98.8968 131.9 99.0168 131.791L103.935 127.618L106.516 126.926C106.82 126.845 107.089 127 107.17 127.304C107.455 128.368 109.149 128.722 110.212 128.437C111.276 128.152 112.619 126.99 112.332 125.921C112.252 125.622 112.406 125.348 112.71 125.267L115.291 124.575L121.566 125.693C121.73 125.727 121.868 125.828 121.95 125.972V125.972Z" fill="#1A1A1A" fill-opacity="0.2"/>
<path d="M258.95 144.972C259.032 145.111 259.024 145.29 258.971 145.442L257.298 150.328C257.238 150.515 257.045 150.661 256.863 150.71C256.812 150.723 256.664 150.752 256.604 150.751L254.227 150.802L256.855 160.61C256.936 160.909 256.782 161.182 256.478 161.264L245.637 164.169C245.333 164.25 245.063 164.09 244.983 163.791L242.355 153.983L240.5 155.072C240.287 155.207 240.061 155.168 239.878 155.001L236.01 151.611C235.886 151.501 235.82 151.358 235.821 151.197C235.816 151.032 235.897 150.9 236.017 150.791L240.935 146.618L243.516 145.926C243.82 145.845 244.089 146 244.17 146.304C244.455 147.368 246.149 147.722 247.212 147.437C248.276 147.152 249.619 145.99 249.332 144.921C249.252 144.622 249.406 144.348 249.71 144.267L252.291 143.575L258.566 144.693C258.73 144.727 258.868 144.828 258.95 144.972V144.972Z" fill="#1A1A1A" fill-opacity="0.2"/>
<path d="M237.95 107.972C238.032 108.111 238.024 108.29 237.971 108.442L236.298 113.328C236.238 113.515 236.045 113.661 235.863 113.71C235.812 113.723 235.664 113.752 235.604 113.751L233.227 113.802L235.855 123.61C235.936 123.909 235.782 124.182 235.478 124.264L224.637 127.169C224.333 127.25 224.063 127.09 223.983 126.791L221.355 116.983L219.5 118.072C219.287 118.207 219.061 118.168 218.878 118.001L215.01 114.611C214.886 114.501 214.82 114.358 214.821 114.197C214.816 114.032 214.897 113.9 215.017 113.791L219.935 109.618L222.516 108.926C222.82 108.845 223.089 109 223.17 109.304C223.455 110.368 225.149 110.722 226.212 110.437C227.276 110.152 228.619 108.99 228.332 107.921C228.252 107.622 228.406 107.348 228.71 107.267L231.291 106.575L237.566 107.693C237.73 107.727 237.868 107.828 237.95 107.972V107.972Z" fill="#1A1A1A" fill-opacity="0.2"/>
<path d="M113.95 89.972C114.032 90.1106 114.024 90.2898 113.971 90.4422L112.298 95.3276C112.238 95.5153 112.045 95.6611 111.863 95.7097C111.812 95.7235 111.664 95.7519 111.604 95.7515L109.227 95.8018L111.855 105.61C111.936 105.909 111.782 106.182 111.478 106.264L100.637 109.169C100.333 109.25 100.063 109.09 99.9829 108.791L97.355 98.9831L95.5002 100.072C95.2872 100.207 95.061 100.168 94.878 100.001L91.0099 96.6113C90.8862 96.5006 90.8202 96.3578 90.8214 96.197C90.8161 96.0325 90.8968 95.9002 91.0168 95.7906L95.9348 91.618L98.5158 90.9265C98.8203 90.8449 99.0887 90.9998 99.1703 91.3043C99.4552 92.3677 101.149 92.7216 102.212 92.4367C103.276 92.1518 104.619 90.9897 104.332 89.9212C104.252 89.6218 104.406 89.3483 104.71 89.2667L107.291 88.5751L113.566 89.6933C113.73 89.7268 113.868 89.8282 113.95 89.972V89.972Z" fill="#1A1A1A" fill-opacity="0.2"/>
<path d="M8.04164 30.0543C7.95224 29.9207 7.94959 29.7414 7.99321 29.5862L9.37665 24.611C9.4259 24.4201 9.61029 24.2632 9.78831 24.2041C9.83903 24.1873 9.98441 24.1503 10.0447 24.1471L12.4143 23.9574L9.2153 14.3208C9.11765 14.0267 9.25488 13.7446 9.55412 13.6453L20.2051 10.1096C20.5043 10.0102 20.783 10.1542 20.8806 10.4484L24.0796 20.085L25.8673 18.889C26.072 18.7422 26.3001 18.7679 26.4925 18.9236L30.5529 22.0803C30.6829 22.1836 30.7571 22.3222 30.7654 22.4828C30.7804 22.6467 30.7075 22.7835 30.5942 22.9L25.9295 27.354L23.3936 28.1958C23.0943 28.2951 22.8174 28.1562 22.718 27.857C22.3712 26.8122 20.6596 26.5582 19.6148 26.9051C18.57 27.2519 17.2976 28.4908 17.6462 29.5406C17.7438 29.8348 17.6066 30.1169 17.3073 30.2162L14.7714 31.058L8.44184 30.31C8.27625 30.2861 8.13272 30.193 8.04164 30.0543V30.0543Z" fill="#1A1A1A" fill-opacity="0.2"/>
<path d="M11.0416 161.054C10.9522 160.921 10.9496 160.741 10.9932 160.586L12.3767 155.611C12.4259 155.42 12.6103 155.263 12.7883 155.204C12.839 155.187 12.9844 155.15 13.0447 155.147L15.4143 154.957L12.2153 145.321C12.1176 145.027 12.2549 144.745 12.5541 144.645L23.2051 141.11C23.5043 141.01 23.783 141.154 23.8806 141.448L27.0796 151.085L28.8673 149.889C29.072 149.742 29.3001 149.768 29.4925 149.924L33.5529 153.08C33.6829 153.184 33.7571 153.322 33.7654 153.483C33.7804 153.647 33.7075 153.784 33.5942 153.9L28.9295 158.354L26.3936 159.196C26.0943 159.295 25.8174 159.156 25.718 158.857C25.3712 157.812 23.6596 157.558 22.6148 157.905C21.57 158.252 20.2976 159.491 20.6462 160.541C20.7438 160.835 20.6066 161.117 20.3073 161.216L17.7714 162.058L11.4418 161.31C11.2763 161.286 11.1327 161.193 11.0416 161.054V161.054Z" fill="#1A1A1A" fill-opacity="0.2"/>
<path d="M336.679 105.071C336.784 105.193 336.809 105.37 336.785 105.53L336.033 110.638C336.008 110.834 335.845 111.013 335.675 111.093C335.627 111.117 335.487 111.171 335.428 111.182L333.101 111.666L337.476 120.828C337.61 121.108 337.509 121.405 337.224 121.541L327.097 126.377C326.813 126.513 326.518 126.405 326.385 126.125L322.009 116.962L320.385 118.372C320.2 118.543 319.97 118.546 319.76 118.416L315.338 115.79C315.196 115.704 315.105 115.575 315.077 115.417C315.041 115.256 315.096 115.111 315.194 114.982L319.267 109.981L321.678 108.829C321.963 108.694 322.255 108.797 322.391 109.081C322.865 110.075 324.595 110.113 325.589 109.639C326.582 109.164 327.69 107.777 327.213 106.778C327.08 106.499 327.181 106.202 327.465 106.066L329.876 104.914L336.25 104.867C336.417 104.87 336.571 104.945 336.679 105.071V105.071Z" fill="#1A1A1A" fill-opacity="0.2"/>
<path d="M334.95 183.634C335.032 183.772 335.024 183.952 334.971 184.104L333.298 188.989C333.238 189.177 333.045 189.323 332.863 189.372C332.812 189.385 332.664 189.414 332.604 189.413L330.227 189.464L332.855 199.271C332.936 199.571 332.782 199.844 332.478 199.926L321.637 202.83C321.333 202.912 321.063 202.752 320.983 202.453L318.355 192.645L316.5 193.734C316.287 193.868 316.061 193.829 315.878 193.663L312.01 190.273C311.886 190.162 311.82 190.02 311.821 189.859C311.816 189.694 311.897 189.562 312.017 189.452L316.935 185.28L319.516 184.588C319.82 184.507 320.089 184.662 320.17 184.966C320.455 186.03 322.149 186.383 323.212 186.099C324.276 185.814 325.619 184.652 325.332 183.583C325.252 183.284 325.406 183.01 325.71 182.929L328.291 182.237L334.566 183.355C334.73 183.389 334.868 183.49 334.95 183.634V183.634Z" fill="#1A1A1A" fill-opacity="0.2"/>
<path d="M4.7705 93.694C4.6811 93.5604 4.67845 93.3811 4.72207 93.2258L6.10551 88.2507C6.15475 88.0598 6.33915 87.9028 6.51717 87.8437C6.56789 87.8269 6.71327 87.7899 6.77361 87.7868L9.14312 87.597L5.94416 77.9605C5.84651 77.6663 5.98374 77.3843 6.28298 77.2849L16.9339 73.7492C17.2332 73.6499 17.5118 73.7939 17.6095 74.0881L20.8084 83.7246L22.5962 82.5287C22.8008 82.3819 23.0289 82.4075 23.2214 82.5632L27.2818 85.72C27.4118 85.8232 27.486 85.9619 27.4942 86.1224C27.5092 86.2864 27.4364 86.4232 27.323 86.5396L22.6584 90.9936L20.1224 91.8354C19.8232 91.9348 19.5462 91.7959 19.4469 91.4966C19.1001 90.4518 17.3885 90.1979 16.3437 90.5447C15.2989 90.8916 14.0265 92.1304 14.375 93.1803C14.4727 93.4745 14.3354 93.7565 14.0362 93.8558L11.5003 94.6977L5.1707 93.9497C5.00511 93.9258 4.86158 93.8327 4.7705 93.694V93.694Z" fill="#1A1A1A" fill-opacity="0.2"/>
<path d="M7.7705 224.694C7.6811 224.56 7.67845 224.381 7.72207 224.226L9.10551 219.251C9.15475 219.06 9.33915 218.903 9.51717 218.844C9.56789 218.827 9.71327 218.79 9.77361 218.787L12.1431 218.597L8.94416 208.96C8.84651 208.666 8.98374 208.384 9.28298 208.285L19.9339 204.749C20.2332 204.65 20.5118 204.794 20.6095 205.088L23.8084 214.725L25.5962 213.529C25.8008 213.382 26.0289 213.408 26.2214 213.563L30.2818 216.72C30.4118 216.823 30.486 216.962 30.4942 217.122C30.5092 217.286 30.4364 217.423 30.323 217.54L25.6584 221.994L23.1224 222.835C22.8232 222.935 22.5462 222.796 22.4469 222.497C22.1001 221.452 20.3885 221.198 19.3437 221.545C18.2989 221.892 17.0265 223.13 17.375 224.18C17.4727 224.474 17.3354 224.757 17.0362 224.856L14.5003 225.698L8.1707 224.95C8.00511 224.926 7.86158 224.833 7.7705 224.694V224.694Z" fill="#1A1A1A" fill-opacity="0.2"/>
<path d="M331.989 41.5203C332.094 41.6417 332.119 41.8193 332.095 41.9788L331.343 47.0876C331.318 47.2832 331.155 47.4619 330.985 47.5427C330.937 47.5657 330.798 47.6206 330.738 47.6312L328.411 48.1149L332.786 57.2774C332.92 57.5571 332.819 57.854 332.534 57.9899L322.407 62.8261C322.123 62.962 321.829 62.8539 321.695 62.5742L317.319 53.4117L315.695 54.8212C315.51 54.9924 315.28 54.9954 315.07 54.8649L310.648 52.2391C310.506 52.1529 310.415 52.0245 310.387 51.8663C310.351 51.7055 310.407 51.5607 310.505 51.431L314.577 46.4301L316.989 45.2786C317.273 45.1428 317.565 45.2461 317.701 45.5306C318.176 46.524 319.905 46.5625 320.899 46.0881C321.892 45.6137 323 44.2259 322.523 43.2276C322.39 42.9479 322.491 42.651 322.775 42.5151L325.187 41.3636L331.56 41.3165C331.727 41.3196 331.881 41.3941 331.989 41.5203V41.5203Z" fill="#1A1A1A" fill-opacity="0.2"/>
<path d="M273.072 251.724C273.046 251.883 272.926 252.016 272.789 252.1L268.392 254.809C268.226 254.915 267.984 254.905 267.814 254.827C267.765 254.805 267.633 254.733 267.587 254.695L265.72 253.223L261.515 262.465C261.387 262.747 261.095 262.861 260.808 262.73L250.593 258.083C250.306 257.952 250.199 257.657 250.327 257.375L254.532 248.133L252.408 247.795C252.158 247.763 252.008 247.59 251.973 247.344L251.141 242.269C251.116 242.105 251.156 241.953 251.259 241.83C251.359 241.699 251.506 241.648 251.668 241.64L258.117 241.544L260.549 242.651C260.836 242.781 260.945 243.072 260.814 243.359C260.358 244.361 261.441 245.71 262.443 246.166C263.445 246.622 265.22 246.579 265.678 245.572C265.807 245.29 266.099 245.176 266.386 245.307L268.818 246.413L272.952 251.264C273.057 251.394 273.099 251.56 273.072 251.724V251.724Z" fill="#1A1A1A" fill-opacity="0.2"/>
<path d="M213.072 251.386C213.046 251.545 212.926 251.678 212.789 251.762L208.392 254.47C208.226 254.577 207.984 254.567 207.814 254.489C207.765 254.467 207.633 254.395 207.587 254.357L205.72 252.885L201.515 262.127C201.387 262.409 201.095 262.523 200.808 262.392L190.593 257.745C190.306 257.614 190.199 257.319 190.327 257.037L194.532 247.795L192.408 247.457C192.158 247.425 192.008 247.251 191.973 247.006L191.141 241.931C191.116 241.767 191.156 241.615 191.259 241.491C191.359 241.361 191.506 241.31 191.668 241.302L198.117 241.206L200.549 242.313C200.836 242.443 200.945 242.733 200.814 243.02C200.358 244.023 201.441 245.372 202.443 245.828C203.445 246.284 205.22 246.24 205.678 245.234C205.807 244.951 206.099 244.838 206.386 244.968L208.818 246.075L212.952 250.926C213.057 251.056 213.099 251.222 213.072 251.386V251.386Z" fill="#1A1A1A" fill-opacity="0.2"/>
<path d="M109.072 252.386C109.046 252.545 108.926 252.678 108.789 252.762L104.392 255.47C104.226 255.577 103.984 255.567 103.814 255.489C103.765 255.467 103.633 255.395 103.587 255.357L101.72 253.885L97.5153 263.127C97.3869 263.409 97.0945 263.523 96.8075 263.392L86.5926 258.745C86.3056 258.614 86.1991 258.319 86.3274 258.037L90.5322 248.795L88.4081 248.457C88.1582 248.425 88.0083 248.251 87.973 248.006L87.141 242.931C87.1159 242.767 87.1557 242.615 87.2588 242.491C87.3593 242.361 87.5057 242.31 87.668 242.302L94.1169 242.206L96.549 243.313C96.836 243.443 96.9447 243.733 96.8141 244.02C96.3582 245.023 97.4409 246.372 98.4429 246.828C99.445 247.284 101.22 247.24 101.678 246.234C101.807 245.951 102.099 245.838 102.386 245.968L104.818 247.075L108.952 251.926C109.057 252.056 109.099 252.222 109.072 252.386V252.386Z" fill="#1A1A1A" fill-opacity="0.2"/>
<path d="M62.5469 22.0901C62.5628 21.9301 62.6748 21.79 62.8071 21.6979L67.0373 18.7362C67.1967 18.6201 67.4388 18.6162 67.6138 18.6837C67.6636 18.7029 67.7994 18.7668 67.8479 18.8027L69.7979 20.1623L73.453 10.6893C73.5646 10.4002 73.8498 10.2696 74.144 10.3831L84.6141 14.4231C84.9082 14.5366 85.0319 14.8248 84.9203 15.114L81.2651 24.5869L83.4054 24.7999C83.6567 24.8167 83.8165 24.9814 83.8662 25.224L84.9945 30.2418C85.0293 30.4041 84.9984 30.5583 84.9027 30.6875C84.8101 30.8236 84.6669 30.8829 84.5054 30.9008L78.0733 31.3746L75.5804 30.4127C75.2862 30.2992 75.1607 30.0159 75.2742 29.7218C75.6705 28.6947 74.5105 27.4108 73.4834 27.0145C72.4563 26.6182 70.6866 26.766 70.2884 27.798C70.1768 28.0872 69.8916 28.2177 69.5975 28.1042L67.1046 27.1423L62.6934 22.5419C62.5807 22.4182 62.5291 22.2551 62.5469 22.0901V22.0901Z" fill="#1A1A1A" fill-opacity="0.2"/>
<path d="M65.5469 153.09C65.5628 152.93 65.6748 152.79 65.8071 152.698L70.0373 149.736C70.1967 149.62 70.4388 149.616 70.6138 149.684C70.6636 149.703 70.7994 149.767 70.8479 149.803L72.7979 151.162L76.453 141.689C76.5646 141.4 76.8498 141.27 77.144 141.383L87.6141 145.423C87.9082 145.537 88.0319 145.825 87.9203 146.114L84.2651 155.587L86.4054 155.8C86.6567 155.817 86.8165 155.981 86.8662 156.224L87.9945 161.242C88.0293 161.404 87.9984 161.558 87.9027 161.688C87.8101 161.824 87.6669 161.883 87.5054 161.901L81.0733 162.375L78.5804 161.413C78.2862 161.299 78.1607 161.016 78.2742 160.722C78.6705 159.695 77.5105 158.411 76.4834 158.015C75.4563 157.618 73.6866 157.766 73.2884 158.798C73.1768 159.087 72.8916 159.218 72.5975 159.104L70.1046 158.142L65.6934 153.542C65.5807 153.418 65.5291 153.255 65.5469 153.09V153.09Z" fill="#1A1A1A" fill-opacity="0.2"/>
<path d="M283.592 119.77C283.596 119.93 283.503 120.083 283.383 120.191L279.555 123.657C279.411 123.792 279.172 123.826 278.99 123.781C278.938 123.768 278.795 123.722 278.742 123.692L276.638 122.587L274.193 132.441C274.118 132.742 273.851 132.907 273.545 132.831L262.653 130.129C262.347 130.053 262.189 129.782 262.263 129.481L264.709 119.626L262.558 119.682C262.307 119.697 262.128 119.553 262.048 119.319L260.303 114.481C260.248 114.324 260.26 114.167 260.339 114.027C260.414 113.88 260.548 113.804 260.706 113.766L267.029 112.494L269.623 113.137C269.929 113.213 270.088 113.479 270.013 113.785C269.747 114.853 271.058 115.982 272.127 116.247C273.195 116.513 274.933 116.145 275.199 115.072C275.274 114.771 275.541 114.606 275.847 114.682L278.44 115.325L283.39 119.34C283.518 119.448 283.589 119.604 283.592 119.77V119.77Z" fill="#1A1A1A" fill-opacity="0.2"/>
<path d="M265.902 86.7558C265.906 86.9165 265.813 87.0695 265.693 87.1774L261.865 90.6434C261.721 90.7785 261.482 90.8126 261.3 90.7674C261.248 90.7545 261.105 90.7081 261.052 90.6785L258.948 89.5727L256.503 99.4275C256.428 99.7283 256.161 99.8934 255.855 99.8175L244.963 97.1146C244.657 97.0387 244.499 96.7681 244.573 96.4673L247.019 86.6125L244.869 86.6681C244.617 86.6828 244.438 86.5392 244.359 86.3048L242.613 81.4668C242.559 81.3101 242.57 81.1532 242.649 81.0131C242.724 80.8665 242.858 80.7898 243.016 80.7519L249.339 79.4798L251.933 80.1233C252.239 80.1992 252.399 80.4647 252.323 80.7707C252.057 81.8391 253.369 82.9684 254.437 83.2335C255.505 83.4986 257.243 83.1314 257.509 82.0577C257.584 81.7569 257.851 81.5918 258.157 81.6678L260.75 82.3113L265.701 86.3258C265.828 86.4345 265.899 86.5899 265.902 86.7558V86.7558Z" fill="#1A1A1A" fill-opacity="0.2"/>
<path d="M243.902 24.7558C243.906 24.9165 243.813 25.0695 243.693 25.1774L239.865 28.6434C239.721 28.7785 239.482 28.8126 239.3 28.7674C239.248 28.7545 239.105 28.7081 239.052 28.6785L236.948 27.5727L234.503 37.4275C234.428 37.7283 234.161 37.8934 233.855 37.8175L222.963 35.1146C222.657 35.0387 222.499 34.7681 222.573 34.4673L225.019 24.6125L222.869 24.6681C222.617 24.6828 222.438 24.5392 222.359 24.3048L220.613 19.4668C220.559 19.3101 220.57 19.1532 220.649 19.0131C220.724 18.8665 220.858 18.7898 221.016 18.7519L227.339 17.4798L229.933 18.1233C230.239 18.1992 230.399 18.4647 230.323 18.7707C230.057 19.8391 231.369 20.9684 232.437 21.2335C233.505 21.4986 235.243 21.1314 235.509 20.0577C235.584 19.7569 235.851 19.5918 236.157 19.6678L238.75 20.3113L243.701 24.3258C243.828 24.4345 243.899 24.5899 243.902 24.7558V24.7558Z" fill="#1A1A1A" fill-opacity="0.2"/>
<path d="M215.902 8.75577C215.906 8.91648 215.813 9.06946 215.693 9.17738L211.865 12.6434C211.721 12.7785 211.482 12.8126 211.3 12.7674C211.248 12.7545 211.105 12.7081 211.052 12.6785L208.948 11.5727L206.503 21.4275C206.428 21.7283 206.161 21.8934 205.855 21.8175L194.963 19.1146C194.657 19.0387 194.499 18.7681 194.573 18.4673L197.019 8.61247L194.869 8.66807C194.617 8.68277 194.438 8.53921 194.359 8.30475L192.613 3.46679C192.559 3.31006 192.57 3.15321 192.649 3.01309C192.724 2.8665 192.858 2.78979 193.016 2.75193L199.339 1.47976L201.933 2.1233C202.239 2.19923 202.399 2.46466 202.323 2.77067C202.057 3.83914 203.369 4.96836 204.437 5.2335C205.505 5.49863 207.243 5.13139 207.509 4.05774C207.584 3.75691 207.851 3.59183 208.157 3.66777L210.75 4.3113L215.701 8.32581C215.828 8.43446 215.899 8.58987 215.902 8.75577V8.75577Z" fill="#1A1A1A" fill-opacity="0.2"/>
<path d="M272.902 9.75577C272.906 9.91648 272.813 10.0695 272.693 10.1774L268.865 13.6434C268.721 13.7785 268.482 13.8126 268.3 13.7674C268.248 13.7545 268.105 13.7081 268.052 13.6785L265.948 12.5727L263.503 22.4275C263.428 22.7283 263.161 22.8934 262.855 22.8175L251.963 20.1146C251.657 20.0387 251.499 19.7681 251.573 19.4673L254.019 9.61247L251.869 9.66807C251.617 9.68277 251.438 9.53921 251.359 9.30475L249.613 4.46679C249.559 4.31006 249.57 4.15321 249.649 4.01309C249.724 3.8665 249.858 3.78979 250.016 3.75193L256.339 2.47976L258.933 3.1233C259.239 3.19923 259.399 3.46466 259.323 3.77067C259.057 4.83914 260.369 5.96836 261.437 6.2335C262.505 6.49863 264.243 6.13139 264.509 5.05774C264.584 4.75691 264.851 4.59183 265.157 4.66777L267.75 5.3113L272.701 9.32581C272.828 9.43446 272.899 9.58987 272.902 9.75577V9.75577Z" fill="#1A1A1A" fill-opacity="0.2"/>
<path d="M280.072 188.386C280.046 188.545 279.926 188.678 279.789 188.762L275.392 191.47C275.226 191.577 274.984 191.567 274.814 191.489C274.765 191.467 274.633 191.395 274.587 191.357L272.72 189.885L268.515 199.127C268.387 199.409 268.095 199.523 267.808 199.392L257.593 194.745C257.306 194.614 257.199 194.319 257.327 194.037L261.532 184.795L259.408 184.457C259.158 184.425 259.008 184.251 258.973 184.006L258.141 178.931C258.116 178.767 258.156 178.615 258.259 178.491C258.359 178.361 258.506 178.31 258.668 178.302L265.117 178.206L267.549 179.313C267.836 179.443 267.945 179.733 267.814 180.02C267.358 181.023 268.441 182.372 269.443 182.828C270.445 183.284 272.22 183.24 272.678 182.234C272.807 181.951 273.099 181.838 273.386 181.968L275.818 183.075L279.952 187.926C280.057 188.056 280.099 188.222 280.072 188.386V188.386Z" fill="#1A1A1A" fill-opacity="0.2"/>
<path d="M59.2758 85.7298C59.2917 85.5698 59.4036 85.4297 59.536 85.3375L63.7662 82.3759C63.9255 82.2598 64.1676 82.2558 64.3426 82.3234C64.3925 82.3426 64.5282 82.4064 64.5768 82.4424L66.5267 83.8019L70.1819 74.329C70.2935 74.0398 70.5787 73.9093 70.8729 74.0228L81.3429 78.0627C81.6371 78.1762 81.7607 78.4645 81.6491 78.7537L77.994 88.2266L80.1343 88.4395C80.3856 88.4563 80.5454 88.6211 80.595 88.8636L81.7234 93.8814C81.7581 94.0438 81.7273 94.198 81.6316 94.3272C81.539 94.4633 81.3958 94.5226 81.2342 94.5405L74.8021 95.0143L72.3092 94.0524C72.0151 93.9389 71.8895 93.6556 72.003 93.3614C72.3993 92.3344 71.2393 91.0505 70.2123 90.6542C69.1852 90.2579 67.4155 90.4056 67.0173 91.4377C66.9057 91.7268 66.6205 91.8574 66.3263 91.7439L63.8335 90.782L59.4223 86.1815C59.3096 86.0578 59.258 85.8947 59.2758 85.7298V85.7298Z" fill="#1A1A1A" fill-opacity="0.2"/>
<path d="M62.2758 216.73C62.2917 216.57 62.4036 216.43 62.536 216.338L66.7662 213.376C66.9255 213.26 67.1676 213.256 67.3426 213.323C67.3925 213.343 67.5282 213.406 67.5768 213.442L69.5267 214.802L73.1819 205.329C73.2935 205.04 73.5787 204.909 73.8729 205.023L84.3429 209.063C84.6371 209.176 84.7607 209.464 84.6491 209.754L80.994 219.227L83.1343 219.44C83.3856 219.456 83.5454 219.621 83.595 219.864L84.7234 224.881C84.7581 225.044 84.7273 225.198 84.6316 225.327C84.539 225.463 84.3958 225.523 84.2342 225.54L77.8021 226.014L75.3092 225.052C75.0151 224.939 74.8895 224.656 75.003 224.361C75.3993 223.334 74.2393 222.05 73.2123 221.654C72.1852 221.258 70.4155 221.406 70.0173 222.438C69.9057 222.727 69.6205 222.857 69.3263 222.744L66.8335 221.782L62.4223 217.182C62.3096 217.058 62.258 216.895 62.2758 216.73V216.73Z" fill="#1A1A1A" fill-opacity="0.2"/>
<path d="M278.902 56.2188C278.906 56.3795 278.813 56.5325 278.693 56.6404L274.865 60.1064C274.721 60.2415 274.482 60.2756 274.3 60.2304C274.248 60.2175 274.105 60.1711 274.052 60.1415L271.948 59.0357L269.503 68.8905C269.428 69.1913 269.161 69.3564 268.855 69.2805L257.963 66.5776C257.657 66.5017 257.499 66.2311 257.573 65.9303L260.019 56.0755L257.869 56.1311C257.617 56.1458 257.438 56.0022 257.359 55.7678L255.613 50.9298C255.559 50.7731 255.57 50.6162 255.649 50.4761C255.724 50.3295 255.858 50.2528 256.016 50.2149L262.339 48.9428L264.933 49.5863C265.239 49.6622 265.399 49.9277 265.323 50.2337C265.057 51.3022 266.369 52.4314 267.437 52.6965C268.505 52.9616 270.243 52.5944 270.509 51.5207C270.584 51.2199 270.851 51.0548 271.157 51.1308L273.75 51.7743L278.701 55.7888C278.828 55.8975 278.899 56.0529 278.902 56.2188V56.2188Z" fill="#1A1A1A" fill-opacity="0.2"/>
<path d="M295.252 209.846C295.408 209.884 295.531 210.014 295.604 210.158L297.948 214.759C298.04 214.933 298.011 215.173 297.919 215.337C297.893 215.384 297.811 215.509 297.769 215.553L296.151 217.294L305.023 222.233C305.294 222.383 305.383 222.684 305.23 222.959L299.772 232.765C299.619 233.041 299.316 233.123 299.045 232.972L290.173 228.034L289.664 230.124C289.613 230.37 289.427 230.506 289.18 230.521L284.054 230.94C283.889 230.952 283.74 230.9 283.626 230.787C283.504 230.676 283.465 230.526 283.47 230.364L283.896 223.928L285.196 221.594C285.349 221.318 285.647 221.233 285.922 221.386C286.884 221.922 288.317 220.952 288.853 219.99C289.388 219.028 289.488 217.255 288.522 216.717C288.251 216.566 288.161 216.266 288.314 215.99L289.614 213.656L294.784 209.928C294.922 209.833 295.091 209.805 295.252 209.846V209.846Z" fill="#1A1A1A" fill-opacity="0.2"/>
<path d="M235.252 209.508C235.408 209.546 235.531 209.676 235.604 209.82L237.948 214.421C238.04 214.595 238.011 214.835 237.919 214.999C237.893 215.046 237.811 215.171 237.769 215.215L236.151 216.956L245.023 221.895C245.294 222.045 245.383 222.346 245.23 222.621L239.772 232.427C239.619 232.703 239.316 232.785 239.045 232.634L230.173 227.696L229.664 229.786C229.613 230.032 229.427 230.168 229.18 230.183L224.054 230.602C223.889 230.614 223.74 230.562 223.626 230.449C223.504 230.338 223.465 230.188 223.47 230.026L223.896 223.59L225.196 221.256C225.349 220.98 225.647 220.895 225.922 221.048C226.884 221.584 228.317 220.614 228.853 219.652C229.388 218.69 229.488 216.917 228.522 216.379C228.251 216.228 228.161 215.928 228.314 215.652L229.614 213.318L234.784 209.59C234.922 209.495 235.091 209.467 235.252 209.508V209.508Z" fill="#1A1A1A" fill-opacity="0.2"/>
<path d="M131.252 210.508C131.408 210.546 131.531 210.676 131.604 210.82L133.948 215.421C134.04 215.595 134.011 215.835 133.919 215.999C133.893 216.046 133.811 216.171 133.769 216.215L132.151 217.956L141.023 222.895C141.294 223.045 141.383 223.346 141.23 223.621L135.772 233.427C135.619 233.703 135.316 233.785 135.045 233.634L126.173 228.696L125.664 230.786C125.613 231.032 125.427 231.168 125.18 231.183L120.054 231.602C119.889 231.614 119.74 231.562 119.626 231.449C119.504 231.338 119.465 231.188 119.47 231.026L119.896 224.59L121.196 222.256C121.349 221.98 121.647 221.895 121.922 222.048C122.884 222.584 124.317 221.614 124.853 220.652C125.388 219.69 125.488 217.917 124.522 217.379C124.251 217.228 124.161 216.928 124.314 216.652L125.614 214.318L130.784 210.59C130.922 210.495 131.091 210.467 131.252 210.508V210.508Z" fill="#1A1A1A" fill-opacity="0.2"/>
<path d="M42.8627 65.1979C42.7046 65.1691 42.574 65.0462 42.4928 64.9068L39.8829 60.451C39.7801 60.2828 39.7957 60.0412 39.8772 59.8722C39.9004 59.8241 39.975 59.6939 40.0147 59.6484L41.5275 57.8148L32.3811 53.4057C32.1019 53.2711 31.9949 52.9762 32.1318 52.6922L37.005 42.5831C37.142 42.299 37.4393 42.1991 37.7185 42.3337L46.8649 46.7429L47.2502 44.6268C47.2872 44.3777 47.4644 44.2317 47.7101 44.2019L52.8027 43.4829C52.9674 43.4614 53.1186 43.5046 53.2396 43.6104C53.3678 43.7138 53.4153 43.8613 53.4201 44.0237L53.3722 50.4731L52.2119 52.88C52.075 53.1641 51.7825 53.2663 51.4985 53.1294C50.5068 52.6513 49.1334 53.7037 48.6553 54.6954C48.1773 55.6871 48.1814 57.4629 49.1779 57.9433C49.4571 58.0778 49.5641 58.3727 49.4272 58.6567L48.2669 61.0636L43.3249 65.0884C43.1925 65.1907 43.0257 65.229 42.8627 65.1979V65.1979Z" fill="#1A1A1A" fill-opacity="0.2"/>
<path d="M160.606 222.149C160.448 222.121 160.317 221.998 160.236 221.858L157.626 217.403C157.523 217.234 157.539 216.993 157.62 216.824C157.643 216.776 157.718 216.645 157.758 216.6L159.27 214.766L150.124 210.357C149.845 210.223 149.738 209.928 149.875 209.644L154.748 199.535C154.885 199.251 155.182 199.151 155.461 199.285L164.608 203.694L164.993 201.578C165.03 201.329 165.207 201.183 165.453 201.153L170.546 200.434C170.71 200.413 170.862 200.456 170.983 200.562C171.111 200.665 171.158 200.813 171.163 200.975L171.115 207.425L169.955 209.832C169.818 210.116 169.525 210.218 169.241 210.081C168.25 209.603 166.876 210.655 166.398 211.647C165.92 212.639 165.924 214.414 166.921 214.895C167.2 215.029 167.307 215.324 167.17 215.608L166.01 218.015L161.068 222.04C160.935 222.142 160.769 222.181 160.606 222.149V222.149Z" fill="#1A1A1A" fill-opacity="0.2"/>
<path d="M206.606 209.149C206.448 209.121 206.317 208.998 206.236 208.858L203.626 204.403C203.523 204.234 203.539 203.993 203.62 203.824C203.643 203.776 203.718 203.645 203.758 203.6L205.27 201.766L196.124 197.357C195.845 197.223 195.738 196.928 195.875 196.644L200.748 186.535C200.885 186.251 201.182 186.151 201.461 186.285L210.608 190.694L210.993 188.578C211.03 188.329 211.207 188.183 211.453 188.153L216.546 187.434C216.71 187.413 216.862 187.456 216.983 187.562C217.111 187.665 217.158 187.813 217.163 187.975L217.115 194.425L215.955 196.832C215.818 197.116 215.525 197.218 215.241 197.081C214.25 196.603 212.876 197.655 212.398 198.647C211.92 199.639 211.924 201.414 212.921 201.895C213.2 202.029 213.307 202.324 213.17 202.608L212.01 205.015L207.068 209.04C206.935 209.142 206.769 209.181 206.606 209.149V209.149Z" fill="#1A1A1A" fill-opacity="0.2"/>
<path d="M153.606 184.149C153.448 184.121 153.317 183.998 153.236 183.858L150.626 179.403C150.523 179.234 150.539 178.993 150.62 178.824C150.643 178.776 150.718 178.645 150.758 178.6L152.27 176.766L143.124 172.357C142.845 172.223 142.738 171.928 142.875 171.644L147.748 161.535C147.885 161.251 148.182 161.151 148.461 161.285L157.608 165.694L157.993 163.578C158.03 163.329 158.207 163.183 158.453 163.153L163.546 162.434C163.71 162.413 163.862 162.456 163.983 162.562C164.111 162.665 164.158 162.813 164.163 162.975L164.115 169.425L162.955 171.832C162.818 172.116 162.525 172.218 162.241 172.081C161.25 171.603 159.876 172.655 159.398 173.647C158.92 174.639 158.924 176.414 159.921 176.895C160.2 177.029 160.307 177.324 160.17 177.608L159.01 180.015L154.068 184.04C153.935 184.142 153.769 184.181 153.606 184.149V184.149Z" fill="#1A1A1A" fill-opacity="0.2"/>
<path d="M179.606 140.149C179.448 140.121 179.317 139.998 179.236 139.858L176.626 135.403C176.523 135.234 176.539 134.993 176.62 134.824C176.643 134.776 176.718 134.645 176.758 134.6L178.27 132.766L169.124 128.357C168.845 128.223 168.738 127.928 168.875 127.644L173.748 117.535C173.885 117.251 174.182 117.151 174.461 117.285L183.608 121.694L183.993 119.578C184.03 119.329 184.207 119.183 184.453 119.153L189.546 118.434C189.71 118.413 189.862 118.456 189.983 118.562C190.111 118.665 190.158 118.813 190.163 118.975L190.115 125.425L188.955 127.832C188.818 128.116 188.525 128.218 188.241 128.081C187.25 127.603 185.876 128.655 185.398 129.647C184.92 130.639 184.924 132.414 185.921 132.895C186.2 133.029 186.307 133.324 186.17 133.608L185.01 136.015L180.068 140.04C179.935 140.142 179.769 140.181 179.606 140.149V140.149Z" fill="#1A1A1A" fill-opacity="0.2"/>
<path d="M157.606 104.149C157.448 104.121 157.317 103.998 157.236 103.858L154.626 99.4026C154.523 99.2344 154.539 98.9927 154.62 98.8237C154.643 98.7756 154.718 98.6455 154.758 98.6L156.27 96.7663L147.124 92.3572C146.845 92.2226 146.738 91.9278 146.875 91.6438L151.748 81.5346C151.885 81.2506 152.182 81.1507 152.461 81.2853L161.608 85.6944L161.993 83.5783C162.03 83.3292 162.207 83.1832 162.453 83.1534L167.546 82.4344C167.71 82.4129 167.862 82.4562 167.983 82.562C168.111 82.6653 168.158 82.8128 168.163 82.9753L168.115 89.4246L166.955 91.8316C166.818 92.1156 166.525 92.2178 166.241 92.0809C165.25 91.6029 163.876 92.6553 163.398 93.6469C162.92 94.6386 162.924 96.4144 163.921 96.8948C164.2 97.0294 164.307 97.3242 164.17 97.6082L163.01 100.015L158.068 104.04C157.935 104.142 157.769 104.181 157.606 104.149V104.149Z" fill="#1A1A1A" fill-opacity="0.2"/>
<path d="M195.606 73.1494C195.448 73.1206 195.317 72.9977 195.236 72.8584L192.626 68.4026C192.523 68.2344 192.539 67.9927 192.62 67.8237C192.643 67.7756 192.718 67.6455 192.758 67.6L194.27 65.7663L185.124 61.3572C184.845 61.2226 184.738 60.9278 184.875 60.6438L189.748 50.5346C189.885 50.2506 190.182 50.1507 190.461 50.2853L199.608 54.6944L199.993 52.5783C200.03 52.3292 200.207 52.1832 200.453 52.1534L205.546 51.4344C205.71 51.4129 205.862 51.4562 205.983 51.562C206.111 51.6653 206.158 51.8128 206.163 51.9753L206.115 58.4246L204.955 60.8316C204.818 61.1156 204.525 61.2178 204.241 61.0809C203.25 60.6029 201.876 61.6553 201.398 62.6469C200.92 63.6386 200.924 65.4144 201.921 65.8948C202.2 66.0294 202.307 66.3242 202.17 66.6082L201.01 69.0152L196.068 73.04C195.935 73.1423 195.769 73.1805 195.606 73.1494V73.1494Z" fill="#1A1A1A" fill-opacity="0.2"/>
<path d="M101.606 60.1494C101.448 60.1206 101.317 59.9977 101.236 59.8584L98.6259 55.4026C98.523 55.2344 98.5387 54.9927 98.6201 54.8237C98.6433 54.7756 98.7179 54.6455 98.7577 54.6L100.27 52.7663L91.1241 48.3572C90.8449 48.2226 90.7378 47.9278 90.8747 47.6438L95.748 37.5346C95.8849 37.2506 96.1822 37.1507 96.4614 37.2853L105.608 41.6944L105.993 39.5783C106.03 39.3292 106.207 39.1832 106.453 39.1534L111.546 38.4344C111.71 38.4129 111.862 38.4562 111.983 38.562C112.111 38.6653 112.158 38.8128 112.163 38.9753L112.115 45.4246L110.955 47.8316C110.818 48.1156 110.525 48.2178 110.241 48.0809C109.25 47.6029 107.876 48.6553 107.398 49.6469C106.92 50.6386 106.924 52.4144 107.921 52.8948C108.2 53.0294 108.307 53.3242 108.17 53.6082L107.01 56.0152L102.068 60.04C101.935 60.1423 101.769 60.1805 101.606 60.1494V60.1494Z" fill="#1A1A1A" fill-opacity="0.2"/>
<path d="M137.606 28.1494C137.448 28.1206 137.317 27.9977 137.236 27.8584L134.626 23.4026C134.523 23.2344 134.539 22.9927 134.62 22.8237C134.643 22.7756 134.718 22.6455 134.758 22.6L136.27 20.7663L127.124 16.3572C126.845 16.2226 126.738 15.9278 126.875 15.6438L131.748 5.5346C131.885 5.25058 132.182 5.15068 132.461 5.28527L141.608 9.69441L141.993 7.57832C142.03 7.32921 142.207 7.18324 142.453 7.15339L147.546 6.43445C147.71 6.41295 147.862 6.45618 147.983 6.56198C148.111 6.6653 148.158 6.8128 148.163 6.97527L148.115 13.4246L146.955 15.8316C146.818 16.1156 146.525 16.2178 146.241 16.0809C145.25 15.6029 143.876 16.6553 143.398 17.6469C142.92 18.6386 142.924 20.4144 143.921 20.8948C144.2 21.0294 144.307 21.3242 144.17 21.6082L143.01 24.0152L138.068 28.04C137.935 28.1423 137.769 28.1805 137.606 28.1494V28.1494Z" fill="#1A1A1A" fill-opacity="0.2"/>
<path d="M181.606 48.1494C181.448 48.1206 181.317 47.9977 181.236 47.8584L178.626 43.4026C178.523 43.2344 178.539 42.9927 178.62 42.8237C178.643 42.7756 178.718 42.6455 178.758 42.6L180.27 40.7663L171.124 36.3572C170.845 36.2226 170.738 35.9278 170.875 35.6438L175.748 25.5346C175.885 25.2506 176.182 25.1507 176.461 25.2853L185.608 29.6944L185.993 27.5783C186.03 27.3292 186.207 27.1832 186.453 27.1534L191.546 26.4344C191.71 26.4129 191.862 26.4562 191.983 26.562C192.111 26.6653 192.158 26.8128 192.163 26.9753L192.115 33.4246L190.955 35.8316C190.818 36.1156 190.525 36.2178 190.241 36.0809C189.25 35.6029 187.876 36.6553 187.398 37.6469C186.92 38.6386 186.924 40.4144 187.921 40.8948C188.2 41.0294 188.307 41.3242 188.17 41.6082L187.01 44.0152L182.068 48.04C181.935 48.1423 181.769 48.1805 181.606 48.1494V48.1494Z" fill="#1A1A1A" fill-opacity="0.2"/>
<path d="M45.8627 196.198C45.7046 196.169 45.574 196.046 45.4928 195.907L42.8829 191.451C42.7801 191.283 42.7957 191.041 42.8772 190.872C42.9004 190.824 42.975 190.694 43.0147 190.648L44.5275 188.815L35.3811 184.406C35.1019 184.271 34.9949 183.976 35.1318 183.692L40.005 173.583C40.142 173.299 40.4393 173.199 40.7185 173.334L49.8649 177.743L50.2502 175.627C50.2872 175.378 50.4644 175.232 50.7101 175.202L55.8027 174.483C55.9674 174.461 56.1186 174.505 56.2396 174.61C56.3678 174.714 56.4153 174.861 56.4201 175.024L56.3722 181.473L55.2119 183.88C55.075 184.164 54.7825 184.266 54.4985 184.129C53.5068 183.651 52.1334 184.704 51.6553 185.695C51.1773 186.687 51.1814 188.463 52.1779 188.943C52.4571 189.078 52.5641 189.373 52.4272 189.657L51.2669 192.064L46.3249 196.088C46.1925 196.191 46.0257 196.229 45.8627 196.198V196.198Z" fill="#1A1A1A" fill-opacity="0.2"/>
<path d="M297.747 74.5439C297.908 74.5527 298.053 74.6584 298.151 74.7865L301.296 78.8821C301.419 79.0362 301.433 79.2779 301.374 79.4557C301.357 79.5064 301.299 79.6448 301.265 79.6949L299.993 81.7028L309.618 84.9371C309.911 85.0358 310.054 85.315 309.954 85.6139L306.379 96.2518C306.279 96.5507 305.996 96.6869 305.702 96.5881L296.078 93.3539L295.959 95.5015C295.954 95.7533 295.796 95.9202 295.556 95.9805L290.593 97.3288C290.432 97.3707 290.277 97.3467 290.143 97.2568C290.003 97.1702 289.938 97.0298 289.913 96.8692L289.156 90.4642L290.007 87.9314C290.107 87.6325 290.385 87.4946 290.684 87.595C291.727 87.9457 292.959 86.7302 293.31 85.6867C293.66 84.6432 293.435 82.8817 292.386 82.5294C292.092 82.4306 291.949 82.1514 292.05 81.8526L292.901 79.3197L297.302 74.7101C297.421 74.5921 297.582 74.5334 297.747 74.5439V74.5439Z" fill="#1A1A1A" fill-opacity="0.2"/>
<path d="M302.252 146.508C302.408 146.546 302.531 146.676 302.604 146.82L304.948 151.421C305.04 151.595 305.011 151.835 304.919 151.999C304.893 152.046 304.811 152.171 304.769 152.215L303.151 153.956L312.023 158.895C312.294 159.045 312.383 159.346 312.23 159.621L306.772 169.427C306.619 169.703 306.316 169.785 306.045 169.634L297.173 164.696L296.664 166.786C296.613 167.032 296.427 167.168 296.18 167.183L291.054 167.602C290.889 167.614 290.74 167.562 290.626 167.449C290.504 167.338 290.465 167.188 290.47 167.026L290.896 160.59L292.196 158.256C292.349 157.98 292.647 157.895 292.922 158.048C293.884 158.584 295.317 157.614 295.853 156.652C296.388 155.69 296.488 153.917 295.522 153.379C295.251 153.228 295.161 152.928 295.314 152.652L296.614 150.318L301.784 146.59C301.922 146.495 302.091 146.467 302.252 146.508V146.508Z" fill="#1A1A1A" fill-opacity="0.2"/>
<path d="M39.5916 128.838C39.4334 128.809 39.3028 128.686 39.2217 128.547L36.6118 124.091C36.509 123.923 36.5246 123.681 36.606 123.512C36.6292 123.464 36.7038 123.334 36.7436 123.288L38.2563 121.455L29.11 117.045C28.8308 116.911 28.7237 116.616 28.8606 116.332L33.7339 106.223C33.8708 105.939 34.1681 105.839 34.4474 105.974L43.5937 110.383L43.979 108.267C44.0161 108.017 44.1932 107.871 44.439 107.842L49.5316 107.123C49.6962 107.101 49.8474 107.144 49.9685 107.25C50.0966 107.354 50.1442 107.501 50.1489 107.663L50.1011 114.113L48.9408 116.52C48.8039 116.804 48.5114 116.906 48.2274 116.769C47.2357 116.291 45.8622 117.344 45.3842 118.335C44.9061 119.327 44.9103 121.103 45.9068 121.583C46.186 121.718 46.293 122.012 46.1561 122.296L44.9958 124.703L40.0537 128.728C39.9213 128.83 39.7546 128.869 39.5916 128.838V128.838Z" fill="#1A1A1A" fill-opacity="0.2"/>
<path d="M42.5916 259.838C42.4334 259.809 42.3028 259.686 42.2217 259.547L39.6118 255.091C39.509 254.923 39.5246 254.681 39.606 254.512C39.6292 254.464 39.7038 254.334 39.7436 254.288L41.2563 252.455L32.11 248.045C31.8308 247.911 31.7237 247.616 31.8606 247.332L36.7339 237.223C36.8708 236.939 37.1681 236.839 37.4474 236.974L46.5937 241.383L46.979 239.267C47.0161 239.017 47.1932 238.871 47.439 238.842L52.5316 238.123C52.6962 238.101 52.8474 238.144 52.9685 238.25C53.0966 238.354 53.1442 238.501 53.1489 238.663L53.1011 245.113L51.9408 247.52C51.8039 247.804 51.5114 247.906 51.2274 247.769C50.2357 247.291 48.8622 248.344 48.3842 249.335C47.9061 250.327 47.9103 252.103 48.9068 252.583C49.186 252.718 49.293 253.012 49.1561 253.296L47.9958 255.703L43.0537 259.728C42.9213 259.83 42.7546 259.869 42.5916 259.838V259.838Z" fill="#1A1A1A" fill-opacity="0.2"/>
<path d="M293.057 10.9929C293.218 11.0017 293.363 11.1073 293.461 11.2355L296.606 15.3311C296.729 15.4852 296.744 15.7269 296.684 15.9047C296.667 15.9553 296.609 16.0938 296.575 16.1439L295.303 18.1518L304.928 21.386C305.221 21.4848 305.364 21.764 305.264 22.0628L301.689 32.7008C301.589 32.9996 301.306 33.1358 301.013 33.0371L291.388 29.8029L291.269 31.9505C291.264 32.2023 291.106 32.3692 290.866 32.4295L285.903 33.7778C285.742 33.8197 285.587 33.7956 285.453 33.7057C285.313 33.6192 285.248 33.4788 285.223 33.3182L284.466 26.9132L285.317 24.3803C285.418 24.0815 285.695 23.9436 285.994 24.044C287.037 24.3947 288.269 23.1792 288.62 22.1357C288.97 21.0921 288.745 19.3307 287.696 18.9783C287.402 18.8796 287.259 18.6004 287.36 18.3015L288.211 15.7687L292.613 11.1591C292.731 11.0411 292.892 10.9823 293.057 10.9929V10.9929Z" fill="#1A1A1A" fill-opacity="0.2"/>
<path d="M328.548 2.99287C328.709 3.00171 328.854 3.10735 328.952 3.23551L332.097 7.3311C332.22 7.48518 332.235 7.72688 332.175 7.90468C332.158 7.95534 332.1 8.09377 332.066 8.14388L330.794 10.1518L340.419 13.386C340.713 13.4848 340.855 13.764 340.755 14.0628L337.18 24.7008C337.08 24.9996 336.797 25.1358 336.504 25.0371L326.879 21.8029L326.76 23.9505C326.755 24.2023 326.597 24.3692 326.357 24.4295L321.394 25.7778C321.233 25.8197 321.078 25.7956 320.944 25.7057C320.804 25.6192 320.739 25.4788 320.714 25.3182L319.957 18.9132L320.808 16.3803C320.909 16.0815 321.186 15.9436 321.485 16.044C322.529 16.3947 323.76 15.1792 324.111 14.1357C324.461 13.0921 324.236 11.3307 323.187 10.9783C322.893 10.8796 322.75 10.6004 322.851 10.3015L323.702 7.7687L328.104 3.1591C328.222 3.04109 328.383 2.98233 328.548 2.99287V2.99287Z" fill="#1A1A1A" fill-opacity="0.2"/>
</svg>
