<svg width="20" height="20" viewBox="0 0 20 20" fill="none" xmlns="http://www.w3.org/2000/svg">
<path d="M10 1.66663C6.775 1.66663 4.16667 4.27496 4.16667 7.49996C4.16667 11.875 10 18.3333 10 18.3333C10 18.3333 15.8333 11.875 15.8333 7.49996C15.8333 4.27496 13.225 1.66663 10 1.66663ZM10 9.58329C9.44747 9.58329 8.91756 9.3638 8.52686 8.9731C8.13616 8.5824 7.91667 8.05249 7.91667 7.49996C7.91667 6.94743 8.13616 6.41752 8.52686 6.02682C8.91756 5.63612 9.44747 5.41663 10 5.41663C10.5525 5.41663 11.0824 5.63612 11.4731 6.02682C11.8638 6.41752 12.0833 6.94743 12.0833 7.49996C12.0833 8.05249 11.8638 8.5824 11.4731 8.9731C11.0824 9.3638 10.5525 9.58329 10 9.58329Z" fill="#9E9E9E"/>
</svg>
