<svg width="31" height="31" viewBox="0 0 31 31" fill="none" xmlns="http://www.w3.org/2000/svg">
<g filter="url(#filter0_f)">
<path d="M6.46735 24.5565L7.74058 19.9289C6.95772 18.5748 6.54046 17.0366 6.54476 15.4641C6.54476 10.5365 10.571 6.53027 15.5178 6.53027C17.918 6.53027 20.1721 7.46009 21.8626 9.14828C23.5574 10.8365 24.4909 13.0817 24.4866 15.4684C24.4866 20.3959 20.4603 24.4023 15.5135 24.4023H15.5092C14.008 24.4023 12.5325 24.0252 11.2205 23.3139L6.46735 24.5565ZM11.4442 21.6942L11.7152 21.8571C12.8594 22.534 14.1714 22.8896 15.5092 22.8939H15.5135C19.6215 22.8939 22.968 19.5646 22.968 15.4684C22.968 13.4845 22.1938 11.6206 20.7872 10.2152C19.3806 8.80976 17.5051 8.03852 15.5135 8.03852C11.4012 8.03852 8.0546 11.3678 8.0546 15.464C8.0546 16.8652 8.44603 18.2321 9.19452 19.4147L9.37087 19.6975L8.61814 22.4355L11.4442 21.6942Z" fill="black" fill-opacity="0.24"/>
</g>
<path d="M6.87437 24.0788L8.08934 19.6651C7.34016 18.3706 6.94605 16.9024 6.94659 15.4082C6.94659 10.711 10.787 6.88989 15.4981 6.88989C17.7879 6.88989 19.9332 7.77853 21.5475 9.38651C23.1618 10.9946 24.0497 13.1358 24.0497 15.4124C24.0497 20.1095 20.2093 23.9306 15.4982 23.9306H15.4939C14.0622 23.9306 12.6561 23.5709 11.4071 22.8939L6.87437 24.0788V24.0788Z" fill="url(#paint0_linear)"/>
<path d="M6.56429 24.3877L7.8217 19.8176C7.04856 18.4804 6.63643 16.9612 6.64073 15.4083C6.64073 10.5419 10.617 6.58533 15.5024 6.58533C17.8728 6.58533 20.0988 7.50354 21.7684 9.17081C23.4421 10.8381 24.364 13.0555 24.3598 15.4125C24.3598 20.2789 20.3835 24.2354 15.4981 24.2354H15.4939C14.0142 24.2349 12.5581 23.8653 11.2585 23.1606L6.56429 24.3878V24.3877ZM11.4793 21.561L11.747 21.7218C12.877 22.3904 14.1727 22.7417 15.4939 22.7459H15.4981C19.5551 22.7459 22.8602 19.4579 22.8602 15.4125C22.8602 13.4533 22.0955 11.6125 20.7064 10.2245C19.3172 8.83657 17.465 8.07487 15.4981 8.07487C11.4369 8.07487 8.13186 11.3628 8.13186 15.4083C8.13186 16.792 8.51839 18.1419 9.25761 19.3098L9.4318 19.5891L8.68835 22.2931L11.4793 21.561Z" fill="white"/>
<path d="M13.2849 11.714C13.1191 11.3458 12.9449 11.3373 12.7878 11.3331C12.6604 11.3289 12.5117 11.3289 12.363 11.3289C12.2143 11.3289 11.9764 11.3839 11.7725 11.6039C11.5686 11.824 10.9993 12.3571 10.9993 13.4447C10.9993 14.528 11.7937 15.5774 11.9042 15.7255C12.0146 15.8736 13.4378 18.1714 15.685 19.0558C17.5542 19.7921 17.9366 19.644 18.3401 19.6059C18.748 19.5678 19.6486 19.0727 19.8355 18.5565C20.0181 18.0402 20.0181 17.6001 19.9629 17.507C19.9077 17.4139 19.759 17.359 19.5381 17.2489C19.3172 17.1389 18.2297 16.6057 18.0258 16.5295C17.8219 16.4534 17.6732 16.4195 17.5288 16.6395C17.38 16.8596 16.9553 17.3547 16.8278 17.5028C16.7003 17.6509 16.5687 17.6678 16.3477 17.5578C16.1268 17.4478 15.4132 17.215 14.5678 16.4618C13.9093 15.8778 13.4633 15.1542 13.3358 14.9342C13.2083 14.7142 13.3231 14.5956 13.4335 14.4857C13.5312 14.3883 13.6544 14.2275 13.7649 14.1006C13.8753 13.9736 13.9136 13.8806 13.9858 13.7324C14.058 13.5843 14.024 13.4574 13.9688 13.3474C13.9136 13.2373 13.4803 12.1498 13.2849 11.714Z" fill="white"/>
<defs>
<filter id="filter0_f" x="0.467354" y="0.530273" width="30.0192" height="30.0262" filterUnits="userSpaceOnUse" color-interpolation-filters="sRGB">
<feFlood flood-opacity="0" result="BackgroundImageFix"/>
<feBlend mode="normal" in="SourceGraphic" in2="BackgroundImageFix" result="shape"/>
<feGaussianBlur stdDeviation="3" result="effect1_foregroundBlur"/>
</filter>
<linearGradient id="paint0_linear" x1="15.4617" y1="24.0776" x2="15.4617" y2="6.88886" gradientUnits="userSpaceOnUse">
<stop stop-color="#20B038"/>
<stop offset="1" stop-color="#60D66A"/>
</linearGradient>
</defs>
</svg>
